<?xml version="1.0" encoding="UTF-8"?><svg id="Capa_1" xmlns="http://www.w3.org/2000/svg" viewBox="0 0 600 600"><defs><style>.cls-1{fill:#fff;}.cls-2{fill:#1eaa32;}</style></defs><path class="cls-1" d="m255.77,375.17c-16.13,18.33-35.57,24.57-60.14,24.57-40.7,0-70.04-20.53-70.04-58.67,0-34.1,22.37-49.87,76.64-59.04l52.07-8.8v-7.7c0-13.2-6.23-23.1-29.34-23.1-19.8,0-31.9,9.53-32.27,24.57h-57.2c.73-44.74,38.87-66.74,88.74-66.74,57.94,0,86.17,22.37,86.17,58.3v136.78h-54.64v-20.17Zm-43.64-15.04c22,0,42.17-10.63,42.17-37.4v-14.3l-40.34,8.07c-19.8,3.67-29.7,8.43-29.7,22.37,0,13.2,9.53,21.27,27.87,21.27Z"/><path class="cls-2" d="m467.23,320.32l-60.56,75.02h-65.47l76.96-95.34-76.96-95.34h65.47l60.56,75.02c9.57,11.86,9.57,28.78,0,40.64Z"/></svg>