<?xml version="1.0" encoding="UTF-8"?><svg id="Capa_1" xmlns="http://www.w3.org/2000/svg" viewBox="0 0 1920 600"><defs><style>.cls-1{fill:#bfbfbf;}.cls-2{fill:#646464;}</style></defs><path class="cls-1" d="m1549.75,279.24l60.2-74.58h65.47l-76.96,95.34,76.96,95.34h-65.47l-60.2-74.58c-9.78-12.11-9.78-29.4,0-41.52Z"/><path class="cls-1" d="m374.75,375.17c-16.13,18.33-35.57,24.57-60.14,24.57-40.7,0-70.04-20.53-70.04-58.67,0-34.1,22.37-49.87,76.64-59.04l52.07-8.8v-7.7c0-13.2-6.23-23.1-29.34-23.1-19.8,0-31.9,9.53-32.27,24.57h-57.2c.73-44.74,38.87-66.74,88.74-66.74,57.94,0,86.17,22.37,86.17,58.3v136.78h-54.64v-20.17Zm-43.64-15.04c22,0,42.17-10.63,42.17-37.4v-14.3l-40.34,8.07c-19.8,3.67-29.7,8.43-29.7,22.37,0,13.2,9.53,21.27,27.87,21.27Z"/><path class="cls-1" d="m554.79,249.76c-19.44,0-37.04,13.57-37.04,42.17v103.41h-57.57v-190.68h56.1v25.67c13.2-17.23,33-30.07,59.77-30.07,40.7,0,67.84,25.67,67.84,78.84v116.24h-57.57v-109.28c0-20.17-7.33-36.3-31.53-36.3Z"/><path class="cls-1" d="m799.74,375.17c-16.13,18.33-35.57,24.57-60.14,24.57-40.7,0-70.04-20.53-70.04-58.67,0-34.1,22.37-49.87,76.64-59.04l52.07-8.8v-7.7c0-13.2-6.23-23.1-29.33-23.1-19.8,0-31.9,9.53-32.27,24.57h-57.21c.73-44.74,38.87-66.74,88.74-66.74,57.94,0,86.18,22.37,86.18,58.3v136.78h-54.64v-20.17Zm-43.64-15.04c22,0,42.17-10.63,42.17-37.4v-14.3l-40.34,8.07c-19.8,3.67-29.7,8.43-29.7,22.37,0,13.2,9.53,21.27,27.87,21.27Z"/><path class="cls-1" d="m942.74,131.32v205.35c0,11.37,3.67,16.5,17.24,16.5h24.57v42.17h-40.34c-31.54,0-59.04-7.7-59.04-52.81v-211.22h57.57Z"/><rect class="cls-1" x="1010.58" y="131.32" width="57.57" height="47.3"/><rect class="cls-1" x="1010.58" y="204.66" width="57.57" height="190.68"/><path class="cls-1" d="m1180.35,131.32v73.34h46.21v42.17h-46.21v89.84c0,11.37,4.04,16.5,17.24,16.5h28.97v42.17h-44.74c-31.54,0-59.04-7.7-59.04-52.81v-95.71h-31.9v-42.17h31.9v-73.34h57.57Z"/><path class="cls-1" d="m1246.72,423.21h31.53c19.8,0,24.2-5.13,30.07-23.47l.36-.73-71.87-194.35h61.97l41.07,139.35,39.97-139.35h61.97l-74.07,204.62c-12.83,35.57-30.8,59.41-73.34,59.41h-47.67v-45.47Z"/><path class="cls-2" d="m1575.64,320.32l-60.56,75.02h-65.47l76.96-95.34-76.96-95.34h65.47l60.56,75.02c9.57,11.86,9.57,28.78,0,40.64Z"/></svg>