<?xml version="1.0" encoding="UTF-8"?>
<svg id="svg833"
  xmlns="http://www.w3.org/2000/svg" viewBox="0 0 3123 2492">
  <defs>
    <style>
      .cls-1 {
        fill: transparent;
      }
    </style>
  </defs>
  <rect class="cls-1" fill="#fff" width="3123" height="2492"/>
  <path fill="#fff" d="m1657.99,964.67c-47.14-58.81-118.59-92.59-193.93-91.74-56.14-5.1-111.42,16.77-148.97,58.81.49-20.78-8.87-40.7-25.15-53.58-16.53-13.37-37.06-20.41-58.32-20.17-20.41-.61-40.34,6.56-55.65,20.17-17.62,16.16-27.1,39.37-25.76,63.18v735.73c-1.7,25.27,7.29,50.06,24.79,68.41,15.67,15.43,36.94,23.82,58.93,23.45,23.21.36,45.69-7.78,63.06-23.09,17.86-15.31,27.7-37.91,26.85-61.36v-241.19c41.31,28.07,90.28,42.89,140.22,42.65,78.01,3.65,152.86-31.35,200.24-93.44,44.96-59.54,68.04-132.69,65.25-207.29,2.07-79.59-23.09-157.6-71.45-220.9m-123.33,312.76c-19.44,28.43-51.88,45.08-86.39,44.23-36.45,1.22-71.08-15.8-92.59-45.2-42.16-59.42-42.65-138.76-1.22-198.66,22.11-29.4,57.11-46.29,93.8-45.08,34.51-.61,66.83,17.01,85.3,46.17,19.93,30.26,29.89,65.86,28.8,102.07,1.22,34.27-8.38,68.17-27.7,96.6"/>
  <path fill="#fff" d="m2447.5,880.6c-161.44,0-292.26,130.83-292.26,292.26s130.83,292.26,292.26,292.26,292.26-130.83,292.26-292.26-130.83-292.26-292.14-292.26h0m0,430.5c-76.29,0-138.12-61.83-138.12-138.12s61.83-138.12,138.12-138.12,138.12,61.83,138.12,138.12-61.83,138.12-138.12,138.12h0"/>
  <path fill="#fff" d="m937.66,1173.28c0-32.78-18.39-62.9-47.54-77.78l-400.65-230.81c-41.61-24.56-95.2-10.77-119.76,30.73-7.98,13.55-12.22,28.91-12.22,44.64v466.94c0,48.27,39.07,87.46,87.34,87.58,16.69,0,32.9-4.72,47.06-13.67h0l398.11-229.6h0c29.27-15,47.78-45.12,47.78-78.02"/>
  <path fill="#fff" d="m2095.18,869.76c-53.71-4.62-105.97,19.44-137.07,63.43-7.17-47.03-50.92-79.35-97.95-72.18-42.17,6.32-73.28,42.53-73.15,85.19v455.09c0,47.51,38.52,86.16,86.16,86.16s86.16-38.52,86.16-86.16v-284.11c-1.58-33.9,20.9-64.16,53.83-72.43,23.82-5.1,48.24-6.2,72.43-3.4,47.27-.73,85.31-38.89,86.16-86.16,0-43.87-32.93-80.57-76.44-85.55"/>
</svg>